<svg xmlns="http://www.w3.org/2000/svg" xmlns:xlink="http://www.w3.org/1999/xlink" viewBox="0 0 68 72">
  <defs>
    <clipPath id="a" transform="translate(0 0)">
      <rect y="36" width="65" height="35.94" style="fill: none"/>
    </clipPath>
  </defs>
  <title>Logo</title>
  <g>
    <path d="M53,58l-2,5-2-5H38a2,2,0,0,1-2-2V21a2,2,0,0,1,2-2H59l-8-9,16,9h0A36,36,0,1,0,36,72c12,0,22-6,29-14H53Z" transform="translate(0 0)" style="fill: #1e88e5"/>
    <g style="clip-path: url(#a)">
      <path d="M53,58l-2,5-2-5H38a2,2,0,0,1-2-2V21a2,2,0,0,1,2-2H59l-8-9,16,9h0A36,36,0,1,0,36,72c12,0,22-6,29-14H53Z" transform="translate(0 0)" style="fill: #1976d2"/>
    </g>
    <rect x="52" y="32" width="4" height="8.61" rx="2" ry="2" style="fill: #1976d2"/>
  </g>
</svg>
